<svg width="1024" height="1024" viewBox="0 0 1024 1024" fill="none" xmlns="http://www.w3.org/2000/svg">
<path d="M510.08 570.821V174.061" stroke="black" stroke-width="8.95" stroke-miterlimit="10" stroke-linecap="round"/>
<path d="M370.38 605.35C462.87 561.25 554.18 560.03 644.2 605.35" stroke="black" stroke-width="8.69" stroke-linecap="round" stroke-linejoin="round"/>
<path d="M535.23 390.41C535.23 390.41 546.401 373.65 641.401 345.71C691.701 328.94 702.87 317.77 730.81 284.24" stroke="black" stroke-width="8.69" stroke-linecap="round" stroke-linejoin="round"/>
<path d="M490.52 390.41C490.52 390.41 479.35 373.65 384.35 345.71C334.06 328.94 322.88 317.77 294.94 284.24" stroke="black" stroke-width="8.69" stroke-linecap="round" stroke-linejoin="round"/>
<path d="M418.51 585.999C418.51 585.999 481.68 542.149 463.57 472.999C445.82 405.209 384.71 405.209 339.64 422.159" stroke="black" stroke-width="8.77" stroke-linecap="round" stroke-linejoin="round"/>
<path d="M607.24 588.999C607.24 588.999 544.07 545.149 562.18 475.999C579.93 408.209 641.04 408.209 686.11 425.159" stroke="black" stroke-width="8.77" stroke-linecap="round" stroke-linejoin="round"/>
<path d="M580.89 559.957C577.26 547.38 578.774 533.877 585.1 522.417C591.425 510.957 602.044 502.478 614.62 498.847C619.603 497.408 624.821 496.965 629.975 497.543C635.129 498.121 640.119 499.709 644.659 502.217C649.2 504.724 653.201 508.102 656.436 512.156C659.67 516.211 662.074 520.863 663.51 525.847C665.833 533.896 664.863 542.538 660.815 549.873C656.766 557.207 649.969 562.633 641.92 564.957C635.479 566.813 628.565 566.036 622.697 562.795C616.829 559.555 612.489 554.117 610.63 547.677C609.156 542.529 609.783 537.007 612.374 532.321C614.964 527.634 619.307 524.166 624.45 522.677C628.569 521.497 632.987 521.998 636.737 524.072C640.486 526.145 643.26 529.621 644.45 533.737C645.395 537.031 644.996 540.565 643.338 543.565C641.681 546.564 638.902 548.784 635.61 549.737C632.971 550.494 630.14 550.174 627.737 548.847C625.333 547.519 623.554 545.293 622.79 542.657C622.184 540.547 622.44 538.283 623.501 536.362C624.562 534.44 626.342 533.018 628.45 532.407C629.287 532.165 630.162 532.09 631.028 532.187C631.893 532.284 632.731 532.551 633.493 532.971C634.256 533.392 634.928 533.959 635.471 534.639C636.014 535.319 636.418 536.1 636.66 536.937" stroke="black" stroke-width="7.68" stroke-linecap="round" stroke-linejoin="round"/>
<path d="M443.87 559.952C447.5 547.375 445.985 533.872 439.66 522.412C433.335 510.952 422.716 502.474 410.14 498.842C400.076 495.941 389.273 497.156 380.105 502.219C370.937 507.283 364.155 515.78 361.25 525.842C358.927 533.891 359.897 542.534 363.945 549.868C367.994 557.203 374.791 562.628 382.84 564.952C389.277 566.812 396.189 566.04 402.057 562.806C407.924 559.571 412.267 554.138 414.13 547.702C415.607 542.554 414.981 537.031 412.39 532.344C409.799 527.657 405.455 524.189 400.31 522.702C396.199 521.514 391.785 522.005 388.036 524.067C384.286 526.129 381.508 529.594 380.31 533.702C379.839 535.333 379.694 537.041 379.884 538.728C380.073 540.415 380.593 542.048 381.414 543.534C382.235 545.02 383.341 546.329 384.668 547.388C385.996 548.446 387.519 549.233 389.15 549.702C390.455 550.08 391.822 550.196 393.173 550.046C394.523 549.895 395.831 549.479 397.02 548.822C398.21 548.166 399.259 547.281 400.106 546.219C400.954 545.157 401.584 543.938 401.96 542.632C402.263 541.587 402.357 540.492 402.236 539.41C402.115 538.329 401.783 537.282 401.257 536.329C400.731 535.376 400.023 534.536 399.172 533.857C398.322 533.178 397.346 532.673 396.3 532.372C394.612 531.89 392.802 532.096 391.265 532.944C389.728 533.793 388.59 535.216 388.1 536.902" stroke="black" stroke-width="7.68" stroke-linecap="round" stroke-linejoin="round"/>
<path d="M482.67 263.8C440.31 214 363.48 236.27 317.29 217.18" stroke="black" stroke-width="7.45" stroke-linecap="round" stroke-linejoin="round"/>
<path d="M537.49 263.8C579.85 213.95 656.68 236.27 702.87 217.18" stroke="black" stroke-width="7.45" stroke-linecap="round" stroke-linejoin="round"/>
<path d="M607.87 138.439C599.87 177.129 575.5 211.149 530.52 228.359" stroke="black" stroke-width="7.45" stroke-linecap="round" stroke-linejoin="round"/>
<path d="M676.42 402.481C676.42 402.481 694 364.541 732 382.141C732 382.141 714.36 420.081 676.42 402.481Z" fill="black"/>
<path d="M680.52 418.22C680.52 418.22 721.52 410.22 729.58 451.22C729.58 451.25 688.53 459.26 680.52 418.22Z" fill="black"/>
<path d="M661 429.529C661 429.529 700.6 442.979 687.15 482.529C687.1 482.569 647.51 469.129 661 429.529Z" fill="black"/>
<path d="M614.25 426C614.25 426 655.49 433 648.53 474.19C648.53 474.23 607.3 467.28 614.25 426Z" fill="black"/>
<path d="M573.78 459.13C573.78 459.13 612.38 443.04 628.46 481.65C628.46 481.65 589.86 497.73 573.78 459.13Z" fill="black"/>
<path d="M631.58 397.68C631.58 397.68 639.45 356.61 680.52 364.47C680.52 364.47 672.66 405.54 631.58 397.68Z" fill="black"/>
<path d="M579.59 419.351C579.59 419.351 571.79 378.271 612.87 370.461C612.87 370.461 620.67 411.551 579.59 419.351Z" fill="black"/>
<path d="M554.28 460.75C554.28 460.75 519.84 437 543.57 402.59C543.57 402.59 578 426.32 554.28 460.75Z" fill="black"/>
<path d="M349.33 401.481C349.33 401.481 331.74 363.541 293.8 381.141C293.8 381.141 311.4 419.081 349.33 401.481Z" fill="black"/>
<path d="M345.23 418.22C345.23 418.22 304.23 410.22 296.18 451.22C296.18 451.25 337.22 459.26 345.23 418.22Z" fill="black"/>
<path d="M364.8 429.529C364.8 429.529 325.2 442.979 338.65 482.529C338.65 482.569 378.25 469.129 364.8 429.529Z" fill="black"/>
<path d="M411.5 426C411.5 426 370.26 433 377.22 474.19C377.22 474.23 418.46 467.28 411.5 426Z" fill="black"/>
<path d="M452 459.129C452 459.129 413.37 442.999 397.29 481.649C397.29 481.649 435.89 497.729 452 459.129Z" fill="black"/>
<path d="M394.17 396.68C394.17 396.68 386.3 355.61 345.23 363.47C345.23 363.47 353.1 404.54 394.17 396.68Z" fill="black"/>
<path d="M446.16 418.351C446.16 418.351 453.97 377.271 412.88 369.461C412.88 369.461 405.08 410.551 446.16 418.351Z" fill="black"/>
<path d="M471.48 459.75C471.48 459.75 505.91 436.02 482.18 401.59C482.18 401.59 447.75 425.32 471.48 459.75Z" fill="black"/>
<path d="M612.92 88.6504C612.92 88.6504 639.26 121.14 606.77 147.47C606.77 147.47 580.44 115 612.92 88.6504Z" fill="black"/>
<path d="M416.24 138.439C424.24 177.129 448.61 211.149 493.59 228.359" stroke="black" stroke-width="7.45" stroke-linecap="round" stroke-linejoin="round"/>
<path d="M411.19 88.6504C411.19 88.6504 384.85 121.14 417.34 147.47C417.34 147.47 443.67 115 411.19 88.6504Z" fill="black"/>
<path d="M554.74 113.84C554.74 113.84 560.16 155.31 518.74 160.73C518.7 160.73 513.27 119.27 554.74 113.84Z" fill="black"/>
<path d="M557.81 113.84C557.81 113.84 552.39 155.31 593.81 160.73C593.85 160.73 599.28 119.27 557.81 113.84Z" fill="black"/>
<path d="M554.29 148.83C554.29 148.83 520.39 173.32 544.87 207.22C544.87 207.22 578.77 182.74 554.29 148.83Z" fill="black"/>
<path d="M513.89 37C513.89 37 471.63 77.51 512.14 119.77C512.14 119.77 554.4 79.25 513.89 37Z" fill="black"/>
<path d="M496.11 299.351C496.11 299.351 478 253.581 432.19 271.731C432.19 271.731 450.34 317.501 496.11 299.351Z" fill="black"/>
<path d="M521.6 299.351C521.6 299.351 539.75 253.581 585.52 271.731C585.52 271.731 567.37 317.501 521.6 299.351Z" fill="black"/>
<path d="M463 112.609C463 112.609 471.37 153.609 430.4 161.959C430.4 161.999 422 120.999 463 112.609Z" fill="black"/>
<path d="M468.89 112.58C468.89 112.58 460.43 153.58 501.39 161.99C501.39 162 509.85 121 468.89 112.58Z" fill="black"/>
<path d="M469.32 148.77C469.32 148.77 444.32 182.29 477.86 207.29C477.86 207.29 502.85 173.76 469.32 148.77Z" fill="black"/>
<path d="M570.29 49.5996C570.29 49.5996 536.39 74.0896 560.88 107.99C560.88 108 594.78 83.4996 570.29 49.5996Z" fill="black"/>
<path d="M461.86 49.5391C461.86 49.5391 436.86 83.0591 470.39 108.059C470.39 108.059 495.39 74.5291 461.86 49.5391Z" fill="black"/>
<path d="M669.34 225.411C669.34 225.411 686.94 187.481 724.88 205.071C724.88 205.071 707.28 243.001 669.34 225.411Z" fill="black"/>
<path d="M641.4 214.171C641.4 214.171 641.52 172.351 683.34 172.471C683.34 172.471 683.22 214.291 641.4 214.171Z" fill="black"/>
<path d="M597.64 222.77C597.64 222.77 588.21 182 629 172.59C629 172.59 638.38 213.33 597.64 222.77Z" fill="black"/>
<path d="M614.46 160.69C614.46 160.69 634.85 124.18 671.36 144.58C671.36 144.58 651 181.09 614.46 160.69Z" fill="black"/>
<path d="M639 281.62C639 281.62 597.51 286.82 592.31 245.33C592.31 245.33 633.8 240.13 639 281.62Z" fill="black"/>
<path d="M680.52 270.449C680.52 270.449 639.03 275.649 633.82 234.149C633.82 234.149 675.32 228.999 680.52 270.449Z" fill="black"/>
<path d="M356.06 226.001C356.06 226.001 338.46 188.071 300.53 205.661C300.53 205.631 318.12 243.571 356.06 226.001Z" fill="black"/>
<path d="M384 214.73C384 214.73 383.88 172.91 342.06 173.03C342.06 173 342.18 214.85 384 214.73Z" fill="black"/>
<path d="M427.76 223.33C427.76 223.33 437.2 182.59 396.46 173.15C396.46 173.15 387 213.89 427.76 223.33Z" fill="black"/>
<path d="M410.94 161.249C410.94 161.249 390.55 124.739 354.04 145.139C354 145.139 374.43 181.649 410.94 161.249Z" fill="black"/>
<path d="M386.4 282.181C386.4 282.181 427.89 287.381 433.09 245.891C433.09 245.891 391.6 240.691 386.4 282.181Z" fill="black"/>
<path d="M344.88 271C344.88 271 386.38 276.2 391.58 234.7C391.58 234.71 350.08 229.51 344.88 271Z" fill="black"/>
<path d="M719.64 316.129C719.64 316.129 748.86 286.219 778.77 315.439C778.77 315.439 749.55 345.349 719.64 316.129Z" fill="black"/>
<path d="M719.77 295.41C719.77 295.41 715.35 253.83 756.93 249.41C756.93 249.4 761.36 291 719.77 295.41Z" fill="black"/>
<path d="M694 303.259C694 303.259 670.33 268.789 704.81 245.119C704.84 245.119 728.51 279.599 694 303.259Z" fill="black"/>
<path d="M654.91 331.211C654.91 331.211 631.25 296.731 665.72 273.061C665.72 273.061 689.39 307.541 654.91 331.211Z" fill="black"/>
<path d="M609 345.709C609 345.709 594 306.709 633 291.709C633 291.659 648 330.689 609 345.709Z" fill="black"/>
<path d="M547.49 362.47C547.49 362.47 532.49 323.47 571.49 308.42C571.51 308.42 586.52 347.45 547.49 362.47Z" fill="black"/>
<path d="M686.11 337.93C686.11 337.93 724.64 321.68 740.89 360.22C740.89 360.22 702.35 376.46 686.11 337.93Z" fill="black"/>
<path d="M304.36 316.129C304.36 316.129 275.14 286.219 245.23 315.439C245.23 315.439 274.45 345.349 304.36 316.129Z" fill="black"/>
<path d="M304.23 295.41C304.23 295.41 308.65 253.83 267.07 249.41C267.07 249.4 262.64 291 304.23 295.41Z" fill="black"/>
<path d="M330 303.259C330 303.259 353.67 268.789 319.19 245.119C319.16 245.119 295.49 279.599 330 303.259Z" fill="black"/>
<path d="M369.09 331.211C369.09 331.211 392.75 296.731 358.28 273.061C358.28 273.061 334.61 307.541 369.09 331.211Z" fill="black"/>
<path d="M415 345.709C415 345.709 430 306.709 391 291.709C391 291.659 376 330.689 415 345.709Z" fill="black"/>
<path d="M476.51 362.47C476.51 362.47 491.51 323.47 452.51 308.42C452.49 308.42 437.48 347.45 476.51 362.47Z" fill="black"/>
<path d="M496.86 559.84C496.86 559.84 509.78 526.27 476.2 513.35C476.2 513.35 463.28 546.93 496.86 559.84Z" fill="black"/>
<path d="M520.91 559.84C520.91 559.84 508 526.27 541.56 513.35C541.56 513.35 554.48 546.93 520.91 559.84Z" fill="black"/>
<path d="M337.89 337.93C337.89 337.93 299.36 321.68 283.11 360.22C283.11 360.22 321.65 376.46 337.89 337.93Z" fill="black"/>
<path d="M193.58 770.26C193.58 781.473 190.913 789.447 185.58 794.18C180.246 798.913 173.32 801.52 164.8 802V828.34C175.9 827.973 185.646 825.513 194.04 820.96C202.368 816.501 209.222 809.72 213.77 801.44C218.496 792.967 220.863 782.75 220.87 770.79V739.77H193.58V770.26ZM193.58 662.26V722.13H220.87V662.25L193.58 662.26Z" fill="black"/>
<path d="M283.46 773.62V743.91H342.52V739.77H256.37V799.77H352.79V773.62H283.46ZM342.52 717.75H283.46V688.41H350.17V662.25H256.37V722.12H342.52V717.75Z" fill="black"/>
<path d="M519.11 663.18L501.11 722.12H526.28L548.21 663.18H519.11ZM495.93 739.77L495.83 739.54L495.77 739.77H468.77L495.23 805.77L519.79 739.77H495.93ZM464.93 662.18H438L448.89 689.32L461.65 721.12H463.5H488.78L464.93 662.18ZM451.47 682.93L448.9 689.32L436.13 721.12H463.5L463.98 720.12L451.47 682.93ZM429 739.77L427.82 742.71L426.82 739.77H398.69L424.37 806.14L455.29 739.77H429ZM400.79 663.18H369L391.82 722.12H420.82L400.79 663.18Z" fill="black"/>
<path d="M572 799.78H599.09V739.78H572V799.78ZM572 662.25V722.12H599.09V662.25H572Z" fill="black"/>
<path d="M635.71 722.12H687.71C686.57 721.63 685.42 721.12 684.25 720.74C679.955 719.147 675.743 717.338 671.63 715.32C667.982 713.604 664.641 711.3 661.74 708.5C660.54 707.392 659.58 706.048 658.921 704.553C658.262 703.058 657.918 701.444 657.91 699.81C657.91 695.08 659.58 691.53 662.91 689.16C666.24 686.79 670.91 685.61 676.74 685.61C681.934 685.693 687.077 686.639 691.96 688.41C697.483 690.325 702.835 692.7 707.96 695.51L718.22 674.77C712.392 670.978 706.16 667.845 699.64 665.43C692.72 662.81 683.72 661.5 672.64 661.5C664.835 661.706 657.175 663.653 650.22 667.2C644.036 670.374 638.846 675.19 635.22 681.12C631.673 686.98 629.9 693.897 629.9 701.87C629.9 708.47 631.11 714.043 633.53 718.59C634.184 719.81 634.912 720.989 635.71 722.12ZM711.46 739.77H660.13C663.083 741.103 665.97 742.297 668.79 743.35C672.268 744.653 675.616 746.281 678.79 748.21C681.554 749.836 684.019 751.923 686.08 754.38C687.831 756.475 688.79 759.119 688.79 761.85C688.79 765.85 687.697 768.963 685.51 771.19C683.25 773.486 680.414 775.133 677.3 775.96C674.11 776.875 670.809 777.346 667.49 777.36C661.839 777.213 656.258 776.076 651 774C645.202 771.92 639.73 769.024 634.75 765.4L622.75 786.52C629.755 791.522 637.55 795.311 645.81 797.73C653.603 800.038 661.683 801.233 669.81 801.28C680.023 801.28 688.617 799.443 695.59 795.77C702.122 792.498 707.621 787.483 711.48 781.28C715.091 775.443 717.002 768.714 717 761.85C717 753.13 715.377 746.13 712.13 740.85C711.92 740.47 711.7 740.12 711.46 739.77Z" fill="black"/>
<path d="M743.53 799.78H770.62V743.91H832.11V799.78H859.2V739.78H743.53V799.78ZM832.11 662.25V717.75H770.62V662.25H743.53V722.12H859.2V662.25H832.11Z" fill="black"/>
<path d="M299.76 868.68H308.285V869.259C307.205 869.336 306.317 869.593 305.623 870.03C304.929 870.467 304.132 871.368 303.231 872.73L289.345 893.753V919.83C289.345 921.938 289.615 923.327 290.155 923.996C290.695 924.639 291.865 924.96 293.665 924.96V925.5H278.505V924.96C281.411 925.14 282.864 923.996 282.864 921.527L282.787 919.907V895.875L268.862 872.808C267.396 870.365 265.763 869.182 263.963 869.259V868.68H277.387V869.259C276.127 869.259 275.497 869.735 275.497 870.686C275.497 871.175 275.818 871.933 276.461 872.962L287.917 891.863L300.454 872.808C300.686 872.602 300.943 872.229 301.226 871.689C301.508 871.123 301.65 870.737 301.65 870.532C301.65 869.683 301.097 869.259 299.991 869.259H299.76V868.68ZM339.298 867.832C347.27 867.832 353.789 870.262 358.855 875.122C363.922 879.957 366.455 886 366.455 893.252C366.455 902.587 363.523 910.443 357.66 916.821C351.796 923.198 344.017 926.387 334.322 926.387C326.453 926.387 320.011 923.816 314.997 918.672C309.982 913.529 307.475 907.357 307.475 900.157C307.475 895.296 308.683 890.307 311.101 885.19C313.518 880.072 317.157 875.906 322.017 872.692C326.877 869.452 332.638 867.832 339.298 867.832ZM339.067 923.378C342.976 923.378 346.833 922.337 350.639 920.254C354.445 918.145 357.441 915.252 359.627 911.575C361.813 907.897 362.906 904.117 362.906 900.234C362.906 894.731 361.427 889.729 358.47 885.229C355.538 880.728 351.719 877.205 347.013 874.659C342.333 872.113 338 870.84 334.014 870.84C328.382 870.84 323.264 872.962 318.661 877.205C314.084 881.448 311.795 886.72 311.795 893.021C311.795 901.07 314.598 908.142 320.204 914.236C325.81 920.331 332.098 923.378 339.067 923.378ZM425.126 925.5H414.402V916.744C408.925 922.838 402.393 925.886 394.807 925.886C389.175 925.886 384.7 924.304 381.383 921.141C378.091 917.978 376.445 913.606 376.445 908.026V874.003C376.445 871.946 376.201 870.647 375.712 870.107C375.224 869.542 374.079 869.259 372.279 869.259V868.68H387.362V869.259C385.767 869.259 384.636 869.516 383.967 870.03C383.324 870.519 383.003 871.702 383.003 873.579V904.786C383.003 911.318 384.533 915.985 387.593 918.788C390.653 921.565 394.138 922.954 398.047 922.954C404.193 922.954 409.645 920.19 414.402 914.661V876.202C414.402 872.833 414.107 870.84 413.515 870.223C412.924 869.58 411.998 869.259 410.738 869.259H410.198V868.68H425.126V869.259C423.274 869.362 422.104 869.67 421.616 870.185C421.153 870.699 420.921 871.676 420.921 873.116V919.405C420.921 921.231 421.011 922.427 421.191 922.993C421.371 923.558 421.731 924.034 422.271 924.42C422.837 924.78 423.789 924.96 425.126 924.96V925.5ZM476.16 866.713L473.459 873.579H472.919C473.022 873.168 473.074 872.615 473.074 871.92C473.074 871.329 472.855 870.956 472.418 870.802C472.007 870.622 471.338 870.532 470.412 870.532H455.561V919.174C455.561 921.18 455.715 922.556 456.024 923.301C456.358 924.021 456.795 924.484 457.335 924.69C457.901 924.87 458.801 924.96 460.036 924.96V925.5H444.645V924.96C446.573 924.831 447.782 924.458 448.271 923.841C448.759 923.224 449.003 921.938 449.003 919.984V870.532H434.77C433.329 870.532 432.391 870.622 431.954 870.802C431.516 870.956 431.298 871.368 431.298 872.036C431.298 872.37 431.401 872.885 431.606 873.579H431.066L428.366 866.713H428.906C429.369 867.639 429.819 868.204 430.256 868.41C430.719 868.59 431.696 868.68 433.188 868.68H470.952C472.444 868.68 473.511 868.59 474.154 868.41C474.822 868.204 475.311 867.639 475.62 866.713H476.16ZM520.906 897.148H489.699V919.02C489.699 921.077 489.789 922.388 489.969 922.954C490.175 923.52 490.535 923.996 491.049 924.381C491.589 924.767 492.515 924.96 493.827 924.96V925.5H479.13V924.96C481.804 925.14 483.142 923.841 483.142 921.064V875.354C483.142 872.756 482.923 871.11 482.486 870.416C482.074 869.722 480.956 869.336 479.13 869.259V868.68H493.827V869.259C492.207 869.362 491.114 869.67 490.548 870.185C489.982 870.699 489.699 871.753 489.699 873.348V895.566H520.906V875.238C520.906 872.923 520.7 871.355 520.289 870.532C519.903 869.683 518.797 869.259 516.971 869.259V868.68H531.514V869.259C530.356 869.259 529.495 869.4 528.929 869.683C528.363 869.94 527.978 870.352 527.772 870.917C527.566 871.483 527.463 872.923 527.463 875.238V918.865C527.463 921.103 527.566 922.504 527.772 923.07C527.978 923.61 528.338 924.06 528.852 924.42C529.366 924.78 530.254 924.96 531.514 924.96V925.5H516.971V924.96C518.54 924.96 519.581 924.639 520.096 923.996C520.636 923.353 520.906 921.617 520.906 918.788V897.148ZM565.791 868.68H582.069V869.259C580.295 869.182 579.047 869.452 578.327 870.069C577.607 870.66 577.247 872.229 577.247 874.775V896.569L611 871.226C611.668 870.763 612.003 870.339 612.003 869.953C612.003 869.49 611.244 869.259 609.727 869.259V868.68H621.993V869.259C618.907 869.336 615.899 870.467 612.967 872.653L583.573 894.602L612.89 916.898C612.916 916.924 612.954 916.949 613.006 916.975C613.057 917.001 613.096 917.039 613.121 917.091C613.173 917.117 613.224 917.129 613.276 917.129C617.133 920.01 620.116 922.041 622.225 923.224C624.359 924.381 626.352 924.96 628.204 924.96V925.5H608.878V924.96C610.601 924.96 611.463 924.767 611.463 924.381C611.463 924.047 610.755 923.34 609.341 922.26L577.247 897.842V918.942C577.247 921.411 577.414 922.928 577.749 923.494C578.109 924.06 578.572 924.471 579.137 924.729C579.729 924.96 580.68 925.037 581.992 924.96V925.5H565.791V924.96C567.951 925.063 569.301 924.741 569.841 923.996C570.407 923.224 570.69 921.617 570.69 919.174V875.083C570.69 872.563 570.407 870.93 569.841 870.185C569.301 869.439 567.951 869.13 565.791 869.259V868.68ZM664.811 868.68H673.336V869.259C672.256 869.336 671.368 869.593 670.674 870.03C669.98 870.467 669.182 871.368 668.282 872.73L654.396 893.753V919.83C654.396 921.938 654.666 923.327 655.206 923.996C655.746 924.639 656.916 924.96 658.716 924.96V925.5H643.556V924.96C646.462 925.14 647.915 923.996 647.915 921.527L647.838 919.907V895.875L633.913 872.808C632.447 870.365 630.814 869.182 629.014 869.259V868.68H642.438V869.259C641.178 869.259 640.548 869.735 640.548 870.686C640.548 871.175 640.869 871.933 641.512 872.962L652.968 891.863L665.505 872.808C665.737 872.602 665.994 872.229 666.277 871.689C666.559 871.123 666.701 870.737 666.701 870.532C666.701 869.683 666.148 869.259 665.042 869.259H664.811V868.68ZM697.227 868.68V869.259C696.481 869.182 695.645 869.297 694.72 869.606C693.82 869.915 693.28 870.365 693.1 870.956C692.945 871.548 692.868 872.949 692.868 875.161V918.788C692.868 921.154 692.958 922.607 693.138 923.147C693.344 923.661 693.717 924.098 694.257 924.458C694.822 924.793 695.813 924.96 697.227 924.96V925.5H682.067V924.96C683.97 924.96 685.153 924.6 685.616 923.88C686.079 923.134 686.31 921.463 686.31 918.865V875.662C686.31 872.962 686.053 871.2 685.539 870.377C685.025 869.529 683.867 869.156 682.067 869.259V868.68H697.227ZM733.153 926.387H732.421L712.208 876.356C710.768 872.833 709.585 870.776 708.659 870.185C707.733 869.567 706.782 869.259 705.804 869.259V868.68H718.92V869.259C717.762 869.182 717.184 869.632 717.184 870.609C717.184 870.995 717.261 871.406 717.415 871.843L735.044 915.625L752.556 871.882C752.788 871.29 752.903 870.815 752.903 870.455C752.903 869.58 752.222 869.182 750.859 869.259V868.68H759.384V869.259C758.792 869.259 758.162 869.349 757.494 869.529C756.851 869.683 756.182 870.339 755.488 871.496C754.794 872.653 754.434 873.271 754.408 873.348L733.153 926.387Z" fill="black"/>
<path d="M232.41 837H791.59" stroke="black" stroke-width="2.42" stroke-miterlimit="10"/>
</svg>
